/* XPM */
static char *b13dd49f82524affaef17c965c0853e7Zbu3UDkVoNLRxSgx[] = {
/* columns rows colors chars-per-pixel */
"40 40 204 2 ",
"   c #000003",
".  c #00090F",
"X  c #00050B",
"o  c #020D14",
"O  c #000612",
"+  c #09151C",
"@  c #0D181F",
"#  c #041218",
"$  c #0D1A21",
"%  c #0C1620",
"&  c #121D25",
"*  c #151F28",
"=  c #142126",
"-  c #15222A",
";  c #19232C",
":  c #1D292F",
">  c #182327",
",  c #1E2B32",
"<  c #112A31",
"1  c #0D2B35",
"2  c #222D34",
"3  c #252F38",
"4  c #253136",
"5  c #263239",
"6  c #2B363C",
"7  c #2C383E",
"8  c #283136",
"9  c #303C3F",
"0  c #003D4F",
"q  c #2D3740",
"w  c #2E3941",
"e  c #333D44",
"r  c #363F48",
"t  c #364146",
"y  c #394146",
"u  c #3A4249",
"i  c #3E494F",
"p  c #3F4A50",
"a  c #31535F",
"s  c #004D64",
"d  c #0E5A6E",
"f  c #08556A",
"g  c #115A6E",
"h  c #0F5A71",
"j  c #125A70",
"k  c #2F5462",
"l  c #325360",
"z  c #325865",
"x  c #09647A",
"c  c #434C51",
"v  c #4C555A",
"b  c #485157",
"n  c #52595F",
"m  c #565E62",
"M  c #5B6365",
"N  c #5B656B",
"B  c #5A6469",
"V  c #61686E",
"C  c #7A6D6F",
"Z  c #7B706E",
"A  c #636A71",
"S  c #6B7276",
"D  c #6E767A",
"F  c #73797D",
"G  c #71777B",
"H  c #87797A",
"J  c #0C6E86",
"K  c #116F89",
"L  c #0B7087",
"P  c #0E7691",
"I  c #757D81",
"U  c #7A7E82",
"Y  c #0795B5",
"T  c #1D9CBB",
"R  c #1599B9",
"E  c #209BBC",
"W  c #7C8285",
"Q  c #7D8588",
"!  c #01A6D2",
"~  c #03ACD5",
"^  c #03ACD8",
"/  c #0BAFD6",
"(  c #1FAFD1",
")  c #12AFD9",
"_  c #0CB1D6",
"`  c #0EB1DA",
"'  c #06B0D4",
"]  c #14B2D7",
"[  c #18B5D6",
"{  c #13B2DA",
"}  c #1BB5DB",
"|  c #1DB8DB",
" . c #21B6D7",
".. c #22B6DB",
"X. c #2AB7DD",
"o. c #24B9DB",
"O. c #2BBBDD",
"+. c #32BCDD",
"@. c #38BEDD",
"#. c #2FBDE0",
"$. c #27B9E0",
"%. c #32BDE0",
"&. c #40BFDF",
"*. c #39C0DF",
"=. c #19C2EA",
"-. c #13C7F2",
";. c #1BCCF4",
":. c #14CAF2",
">. c #0EC8EE",
",. c #2BC1E4",
"<. c #28C5E8",
"1. c #39CCEE",
"2. c #37CBEF",
"3. c #2BD4FC",
"4. c #2DD0F7",
"5. c #33D3F6",
"6. c #33D3FA",
"7. c #36D8FD",
"8. c #33CBF0",
"9. c #35E5FD",
"0. c #46C2DE",
"q. c #4CC4E0",
"w. c #4BCAE8",
"e. c #5CC9E2",
"r. c #4ED2F2",
"t. c #5AD0EA",
"y. c #63CCE5",
"u. c #69CFE6",
"i. c #6DD1E9",
"p. c #61D0EC",
"a. c #7AD3E8",
"s. c #70DEF7",
"d. c #82878A",
"f. c #8B8688",
"g. c #988888",
"h. c #878D90",
"j. c #8D9195",
"k. c #8F9498",
"l. c #959A9C",
"z. c #979597",
"x. c #9D928C",
"c. c #A2908E",
"v. c #A39494",
"b. c #AB9999",
"n. c #B5A29E",
"m. c #999DA0",
"M. c #959CA2",
"N. c #9DA3A6",
"B. c #9FA4A8",
"V. c #A5A8AB",
"C. c #A5A7A9",
"Z. c #BBA7A3",
"A. c #BDA9A5",
"S. c #BFACA9",
"D. c #B4A2A0",
"F. c #ACADB0",
"G. c #B3B3B5",
"H. c #B3B6BA",
"J. c #BABABC",
"K. c #B5B8BB",
"L. c #ACB3B3",
"P. c #C1A9A7",
"I. c #BEBEC2",
"U. c #BDC1C4",
"Y. c #8CD9EA",
"T. c #88D7EB",
"R. c #9BDFEE",
"E. c #94DBEB",
"W. c #9EE0EC",
"Q. c #9EE0F0",
"!. c #A4E0ED",
"~. c #A9E3EF",
"^. c #B0E4EF",
"/. c #A7E2F0",
"(. c #B4E6F4",
"). c #CACBCC",
"_. c #C6C5C6",
"`. c #D4C6C4",
"'. c #D4CECD",
"]. c #D3C8C2",
"[. c #D4CED0",
"{. c #D3D2D3",
"}. c #D9DADB",
"|. c #E2DEDF",
" X c #DEDFE3",
".X c #C6ECF3",
"XX c #CCF0F7",
"oX c #D4F1F6",
"OX c #D7F3F9",
"+X c #DAE9EE",
"@X c #E7E6E7",
"#X c #F0EFED",
"$X c #EEEFF1",
"%X c #F1EFF2",
"&X c #E4F7F6",
"*X c #E9F7FB",
"=X c #EBF9FB",
"-X c #E7F8FA",
";X c #F5F4F5",
":X c #F6FCFD",
">X c #FFFFFF",
",X c #FFFEFE",
"<X c #FEFEFE",
"1X c #FDFAF8",
/* pixels */
",X,X}.D t 7 e e t t e e r e e r r e r e t e t e t e e e e e e e e e e e N U.<X<X",
",XK.@ o , 6 8 5 5 5 8 5 5 8 5 8 5 5 5 5 5 5 5 5 5 5 5 5 5 8 6 8 5 8 8 5 # o j.,X",
" X@ & w 7 6 7 w 6 7 6 w w 6 6 7 7 w 7 6 7 7 7 7 w 6 6 w 6 6 6 6 7 6 w 7 9 2 X K.",
"F o w 6 7 6 8 7 w 6 w 5 6 q q w 6 8 8 w 6 w 8 5 7 6 w 6 5 w 6 q 7 5 5 6 7 w & c ",
"u 2 6 7 6 6 8 7 w 6 w 8 8 q 7 7 6 6 6 6 7 6 6 6 6 6 7 7 8 7 7 7 6 6 6 6 6 7 w 4 ",
"9 8 7 6 8 b I 2 6 w = I M : 7 5 p F 4 6 7 - S m : 6 5 c Q 5 6 7 = D N : 6 6 w 5 ",
"u 8 6 7 , m m., 6 6 & m.G - 7 2 v l.5 6 6 = j.S - q , v V.6 5 7 $ j.F = 7 7 w 6 ",
"u 8 7 6 $ d.;Xc ; 2 q ;XJ.& 8 @ U ;Xb - 4 5 $XF.$ q % h.<Xv ; 2 4 $XL.@ 6 6 6 6 ",
"r 8 6 7 o W ,X6   O $ ,X_.  #   D ,Xe   . + ,XF.  +   d.,Xy   o # ,XG.# 9 8 6 6 ",
"r 8 7 8 = F.,XH.l.m.V.,X;Xk.B.j.{.,XG.l.l.C.,X#Xj.C.j.}.,XK.l.m.B.,X}., 8 7 6 6 ",
"u 8 7 2 w  XI.b.A.A.Z.g.c.P.A.A.b.g.D.S.A.A.g.v.A.Z.S.b.g.n.S.Z.n.C.;XM = w 6 6 ",
"r 5 6 2 t {.c 0 x d d d d j d d d d g g g g d d d h h d d h g h s < ).V - 6 6 6 ",
"u 5 8 8 e '.N ( 9.5.6.6.6.4.5.6.5.6.6.6.3.6.5.6.6.6.5.6.5.5.6.7.4.z ].N - 7 6 6 ",
"u 2 7 2 e '.N T 8.@...) { ] ` { O.@.| _ ` ` ] | #.*.o.` _ ` ` ,.X.l `.M - 7 7 6 ",
"y 5 6 2 r '.M T 2.{ 0.R.OXoX~.y.X.o.u.E././.T.0.{ } e.(.Y.Y.^.w.[ k ].B - 7 w 6 ",
"y 8 6 4 e '.B T =.q.<X<XOXOX,X,Xa.! XX,X1X<X,X,X!.^ y.=X,X,X=Xt.{ z ].B - 7 7 6 ",
"u 5 6 , t [.N R =.=X<X0./ { @..XY.! oX<X..| &.oX,Xa.^ ) &X=X) ,.O.a `.N ; 6 6 6 ",
"y 5 6 4 w [.B Y r.<X!.! #.#.} ..,.} oX<X| o.~ @.,XOX_ } &X=X} ,.O.a `.N = 7 6 6 ",
"y 8 7 2 e '.N R 1.,XOX .' ` o.O.O.] XX1Xo.O.| ..,XOX{ | -X-X..,.O.a ].N - 7 6 7 ",
"t 5 6 , e '.N T =.R.,X<X/.a.*.) $.[ OX:X~ ~ ! T.,XW.^ ..&X=X| ,.O.a `.N ; 7 6 6 ",
"y 8 7 2 e '.M T <.} E.:X<X<X,XY.[ { .X,XT.T..X,X&XO.| o.=X=Xo.#.X.a ].N - w 6 w ",
"y 8 6 4 e '.M E 8.O.{ X.0.a.&X,XT.^ (.,X<X,X:XR.+.} O. .=X=X..,.X.a `.N - 6 6 6 ",
"t 4 6 4 e '.N E <.| %.$.| ~ O.,X:X_ XX:XO.+.o.{ ..@.X.o.-X-X..,.O.z ].B - 6 6 6 ",
"t 5 6 2 e [.N R r.q._ o.O.{ ] ,X=X' XX<X} [ O.%.@.%.X.{ -X-X] <.X.z ].B - 6 6 6 ",
"t 5 6 2 e [.N Y s.,Xa.+.....!.,XT.~ oX,Xo.O.+.%.+.#.O.X.;X=Xo.,.X.a ].N - 6 w 6 ",
"y 5 6 2 e '.N Y 1.*X,X,X:X,X,XR.] ` &X,XX.o.%.*.+.{ i.,X,X,X,Xp.) l `.N - 7 6 6 ",
"u 8 7 2 e '.N T <.X.y.R.(.Q.e.{ X.#.y.u.+.#.+.O.#.X.0.T.i.i.T.w.} l ].M - 6 7 6 ",
"u 2 6 2 e '.N [ 9.4.-.-.:.>.;.5.6.7.;.:.6.6.6.6.6.7.4.:.:.:.:.3.6.z `.N - 7 7 6 ",
"t 5 6 2 r [.i s P J K J L J K J J J J J J J L L J J J K J K J L J 1 _.V - 6 w 6 ",
"t 8 6 2 r @XC.f.v.z.x.C H v.x.v.g.C g.v.v.v.Z H v.x.b.H C g.v.v.g.h.$XN = 7 6 6 ",
"y 3 7 8 ; G.<X_.G.J.I.,X1XG.J.L.|.,X).G.G.J.,X;XF.J.F.@X,X).G.K.J.,X X8 , 7 6 6 ",
"y 5 6 7 # W ,Xq   o $ ,XI.  +   D ,Xe   o $ ,XF.  @   d.,Xu   # # <XG.# 7 6 6 6 ",
"t 3 6 6 + h.,Xc - 2 w <X_.$ 5 + W <Xv * 2 6 <XG.+ 6 + k.,Xn $ 4 4 :XJ.+ 8 7 7 6 ",
"u 3 7 6 , M V.8 8 8 ; V.W = 7 , n C.6 3 6 ; l.G - 7 : M G.7 5 6 = l.W = 6 7 6 7 ",
"e 6 7 6 3 b W : w w & W N : 7 5 c U 2 7 q * G M , 6 , c h.4 7 7 $ F V ; 7 7 w 5 ",
"e 2 7 6 5 e t 6 w 7 6 t e 8 6 7 9 r 6 6 6 8 e e 5 w q w u 6 6 6 6 t e 6 6 w w 5 ",
"A # w 6 w 5 2 7 6 6 7 8 5 w 6 7 6 2 6 7 7 7 8 8 w 6 7 8 2 q 6 6 w 4 5 w 6 w ; u ",
").o , w 6 7 6 w 6 7 7 6 6 7 6 7 7 7 7 6 6 7 q q 7 7 7 7 q 7 6 6 6 6 7 6 w 8   N.",
",Xl.o @ 7 e 6 6 7 7 6 7 6 7 7 6 6 q 7 7 7 7 6 6 7 w 6 6 q 6 6 6 7 6 7 w - X S ,X",
",X,XK.b 8 8 6 6 6 6 6 6 7 7 6 7 6 7 6 6 6 7 6 6 8 w 6 6 6 q 6 6 w 6 8 5 i m.,X,X"
};
